<svg width="30" height="30" viewBox="0 0 30 30" fill="none" xmlns="http://www.w3.org/2000/svg">
<circle cx="15" cy="15" r="14.5" fill="white" stroke="#699DFD"/>
<rect x="4.79996" y="13.2" width="1.2" height="1.2" fill="#699DFD"/>
<rect x="4.79996" y="14.4" width="1.2" height="1.2" fill="#699DFD"/>
<rect x="5.99998" y="12" width="1.2" height="1.2" fill="#699DFD"/>
<rect x="5.99998" y="15.6" width="1.2" height="1.2" fill="#699DFD"/>
<rect x="7.2" y="15.6" width="1.2" height="1.2" fill="#699DFD"/>
<rect x="12" y="8.39996" width="1.2" height="1.2" fill="#699DFD"/>
<rect x="13.2" y="19.2" width="1.2" height="1.2" fill="#699DFD"/>
<rect x="13.2" y="8.39996" width="1.2" height="1.2" fill="#699DFD"/>
<rect x="14.4" y="19.2" width="1.2" height="1.2" fill="#699DFD"/>
<rect x="14.4" y="8.39996" width="1.2" height="1.2" fill="#699DFD"/>
<rect x="15.6" y="19.2" width="1.2" height="1.2" fill="#699DFD"/>
<rect x="15.6" y="8.39996" width="1.2" height="1.2" fill="#699DFD"/>
<rect x="16.8" y="7.20001" width="1.2" height="1.2" fill="#699DFD"/>
<rect x="18" y="6" width="1.2" height="1.2" fill="#699DFD"/>
<rect x="14.4" y="12.6" width="1.2" height="1.2" fill="#699DFD"/>
<rect x="15.6" y="11.4" width="1.2" height="1.2" fill="#699DFD"/>
<rect x="13.2" y="11.4" width="1.2" height="1.2" fill="#699DFD"/>
<rect x="13.2" y="16.2" width="1.2" height="1.2" fill="#699DFD"/>
<rect x="15.6" y="13.8" width="1.2" height="1.2" fill="#699DFD"/>
<rect x="16.8" y="12.6" width="1.2" height="1.2" fill="#699DFD"/>
<rect x="16.8" y="15.15" width="1.2" height="1.2" fill="#699DFD"/>
<rect x="18" y="13.95" width="1.2" height="1.2" fill="#699DFD"/>
<rect x="15.6" y="16.2" width="1.2" height="1.2" fill="#699DFD"/>
<rect x="18" y="21.6" width="1.2" height="1.2" fill="#699DFD"/>
<rect x="16.8" y="20.4" width="1.2" height="1.2" fill="#699DFD"/>
<rect x="14.4" y="15" width="1.2" height="1.2" fill="#699DFD"/>
<rect x="8.39996" y="15.6" width="1.2" height="1.2" fill="#699DFD"/>
<rect x="9.59999" y="14.55" width="1.2" height="1.2" fill="#699DFD"/>
<rect x="22.8" y="13.2" width="1.2" height="1.2" transform="rotate(-180 22.8 13.2)" fill="#699DFD"/>
<rect x="24" y="12" width="1.2" height="1.2" transform="rotate(-180 24 12)" fill="#699DFD"/>
<rect x="25.2" y="10.8" width="1.2" height="1.2" transform="rotate(-180 25.2 10.8)" fill="#699DFD"/>
<rect x="21.6" y="16.8" width="1.2" height="1.2" transform="rotate(-90 21.6 16.8)" fill="#699DFD"/>
<rect x="24" y="13.8" width="1.2" height="1.2" transform="rotate(-90 24 13.8)" fill="#699DFD"/>
<rect x="22.8" y="15" width="1.2" height="1.2" transform="rotate(-90 22.8 15)" fill="#699DFD"/>
<rect x="24" y="16.2" width="1.2" height="1.2" transform="rotate(-90 24 16.2)" fill="#699DFD"/>
<rect x="22.8" y="18" width="1.2" height="1.2" transform="rotate(-90 22.8 18)" fill="#699DFD"/>
<rect x="24" y="19.2" width="1.2" height="1.2" transform="rotate(-90 24 19.2)" fill="#699DFD"/>
<rect x="16.8" y="18" width="1.2" height="1.2" fill="#699DFD"/>
<rect x="18" y="16.95" width="1.2" height="1.2" fill="#699DFD"/>
<rect x="19.2" y="15.75" width="1.2" height="1.2" fill="#699DFD"/>
<rect x="16.8" y="9.59998" width="1.2" height="1.2" fill="#699DFD"/>
<rect x="18" y="10.8" width="1.2" height="1.2" fill="#699DFD"/>
<rect x="19.2" y="12" width="1.2" height="1.2" fill="#699DFD"/>
<rect x="20.4" y="13.2" width="1.2" height="1.2" fill="#699DFD"/>
<rect x="10.8" y="19.2" width="1.2" height="1.2" fill="#699DFD"/>
<rect x="20.4" y="14.4" width="1.2" height="1.2" fill="#699DFD"/>
<rect x="9.59999" y="12" width="1.2" height="1.2" fill="#699DFD"/>
<rect x="7.2" y="18" width="1.2" height="1.2" fill="#699DFD"/>
<rect x="7.2" y="10.8" width="1.2" height="1.2" fill="#699DFD"/>
<rect x="8.39996" y="9.59998" width="1.2" height="1.2" fill="#699DFD"/>
<rect x="9.59999" y="8.39996" width="1.2" height="1.2" fill="#699DFD"/>
<rect x="10.8" y="8.39996" width="1.2" height="1.2" fill="#699DFD"/>
<rect x="12" y="19.2" width="1.2" height="1.2" fill="#699DFD"/>
<rect x="5.99998" y="16.8" width="1.2" height="1.2" fill="#699DFD"/>
<rect x="9.59999" y="19.2" width="1.2" height="1.2" fill="#699DFD"/>
<rect x="8.39996" y="19.2" width="1.2" height="1.2" fill="#699DFD"/>
</svg>
