<svg width="40" height="40" viewBox="0 0 40 40" fill="none" xmlns="http://www.w3.org/2000/svg">
<rect width="40" height="40" fill="#F7DF1E"/>
<path d="M15.176 14.288H18.008V22.176C18.008 23.84 17.8 24.736 17.032 25.568C16.328 26.32 15 26.544 13.912 26.432C13.144 26.336 11.896 25.76 11 24.624L12.696 22.608C13.304 23.296 13.816 23.568 14.312 23.536C14.776 23.504 15.176 23.104 15.176 22.176V14.288Z" fill="#333333"/>
<path d="M25.9622 26.224C24.8263 26.544 23.2903 26.56 21.8663 26.16C21.0662 25.888 19.7702 25.136 19.0662 24.352L20.9543 22.304C22.5543 23.424 23.8023 23.904 24.7143 23.68C25.5463 23.472 25.7223 22.512 25.0023 22.048C24.1863 21.488 23.3703 21.312 21.9303 20.544C19.8983 19.408 19.3862 17.696 20.0903 16.32C20.8103 14.8 22.3623 14 24.1863 14C25.9943 14 27.4983 14.672 28.5383 15.792L26.6823 17.856C25.8983 17.184 24.7302 16.704 23.9622 16.704C23.5142 16.704 23.0823 16.96 23.0823 17.488C23.0823 18 23.7062 18.4 25.4342 19.248C27.6102 20.24 28.4263 21.232 28.5863 22.432C28.8743 24.144 27.9623 25.664 25.9622 26.224Z" fill="#333333"/>
</svg>
