<svg width="40" height="40" viewBox="0 0 40 40" fill="none" xmlns="http://www.w3.org/2000/svg">
<rect width="40" height="40" fill="#3178C6"/>
<path d="M10 14.288H19.04V16.912H15.904V26.16H13.056V16.912H10V14.288Z" fill="white"/>
<path d="M26.4272 26.224C25.2913 26.544 23.7553 26.56 22.3313 26.16C21.5312 25.888 20.2353 25.136 19.5312 24.352L21.4193 22.304C23.0193 23.424 24.2673 23.904 25.1793 23.68C26.0113 23.472 26.1873 22.512 25.4673 22.048C24.6513 21.488 23.8353 21.312 22.3953 20.544C20.3633 19.408 19.8513 17.696 20.5553 16.32C21.2753 14.8 22.8273 14 24.6513 14C26.4593 14 27.9633 14.672 29.0033 15.792L27.1473 17.856C26.3633 17.184 25.1953 16.704 24.4272 16.704C23.9792 16.704 23.5473 16.96 23.5473 17.488C23.5473 18 24.1712 18.4 25.8993 19.248C28.0753 20.24 28.8913 21.232 29.0513 22.432C29.3393 24.144 28.4273 25.664 26.4272 26.224Z" fill="white"/>
</svg>
