<svg width="41" height="40" viewBox="0 0 41 40" fill="none" xmlns="http://www.w3.org/2000/svg">
<rect width="40.9302" height="40" fill="#61DAFB"/>
<g clip-path="url(#clip0_27_1523)">
<path d="M20.5 22.0036C21.6322 22.0036 22.55 21.1065 22.55 20C22.55 18.8935 21.6322 17.9964 20.5 17.9964C19.3678 17.9964 18.45 18.8935 18.45 20C18.45 21.1065 19.3678 22.0036 20.5 22.0036Z" fill="white"/>
<path d="M20.5 24.1048C26.5751 24.1048 31.5 22.267 31.5 20C31.5 17.7329 26.5751 15.8951 20.5 15.8951C14.4249 15.8951 9.5 17.7329 9.5 20C9.5 22.267 14.4249 24.1048 20.5 24.1048Z" stroke="white"/>
<path d="M16.8627 22.0524C19.9003 27.1945 23.9912 30.444 26 29.3105C28.0088 28.177 27.1749 23.0896 24.1373 17.9475C21.0997 12.8055 17.0088 9.55593 15 10.6895C12.9912 11.823 13.8251 16.9104 16.8627 22.0524Z" stroke="white"/>
<path d="M16.8627 17.9475C13.8251 23.0896 12.9912 28.177 15 29.3105C17.0088 30.444 21.0997 27.1945 24.1373 22.0524C27.1749 16.9103 28.0088 11.823 26 10.6894C23.9912 9.55592 19.9003 12.8055 16.8627 17.9475Z" stroke="white"/>
</g>
<defs>
<clipPath id="clip0_27_1523">
<rect width="23" height="20" fill="white" transform="translate(9 10)"/>
</clipPath>
</defs>
</svg>
