<svg width="40" height="40" viewBox="0 0 40 40" fill="none" xmlns="http://www.w3.org/2000/svg">
<rect width="40" height="40" fill="#30AADD"/>
<path d="M7 20.4608C7 18.1368 7.896 16.5408 9.422 15.5888C10.346 15.0288 12.012 14.8748 13.062 15.0988C13.972 15.2808 14.854 15.7848 15.806 16.8348L14.294 18.4028C13.384 17.3808 12.25 17.1568 11.284 17.4788C10.108 17.8568 9.436 18.8648 9.436 20.4608C9.436 22.0708 10.402 23.2328 11.298 23.4568C12.306 23.6948 13.594 23.4568 14.294 22.5048L15.806 24.1008C14.896 25.1648 14.028 25.6548 13.062 25.8368C12.012 26.0328 10.346 25.8928 9.422 25.3468C7.896 24.3948 7 22.7988 7 20.4608Z" fill="white"/>
<path d="M22.1362 25.6968C21.1422 25.9768 19.7982 25.9908 18.5522 25.6408C17.8522 25.4028 16.7182 24.7448 16.1022 24.0588L17.7542 22.2668C19.1542 23.2468 20.2462 23.6668 21.0442 23.4708C21.7722 23.2888 21.9262 22.4488 21.2962 22.0428C20.5822 21.5528 19.8682 21.3988 18.6082 20.7268C16.8302 19.7328 16.3822 18.2348 16.9982 17.0308C17.6282 15.7008 18.9862 15.0008 20.5822 15.0008C22.1642 15.0008 23.4802 15.5888 24.3902 16.5688L22.7662 18.3748C22.0802 17.7868 21.0582 17.3668 20.3862 17.3668C19.9942 17.3668 19.6162 17.5908 19.6162 18.0528C19.6162 18.5008 20.1622 18.8508 21.6742 19.5928C23.5782 20.4608 24.2922 21.3288 24.4322 22.3788C24.6842 23.8768 23.8862 25.2068 22.1362 25.6968Z" fill="white"/>
<path d="M31.146 25.6968C30.152 25.9768 28.808 25.9908 27.562 25.6408C26.862 25.4028 25.728 24.7448 25.112 24.0588L26.764 22.2668C28.164 23.2468 29.256 23.6668 30.054 23.4708C30.782 23.2888 30.936 22.4488 30.306 22.0428C29.592 21.5528 28.878 21.3988 27.618 20.7268C25.84 19.7328 25.392 18.2348 26.008 17.0308C26.638 15.7008 27.996 15.0008 29.592 15.0008C31.174 15.0008 32.49 15.5888 33.4 16.5688L31.776 18.3748C31.09 17.7868 30.068 17.3668 29.396 17.3668C29.004 17.3668 28.626 17.5908 28.626 18.0528C28.626 18.5008 29.172 18.8508 30.684 19.5928C32.588 20.4608 33.302 21.3288 33.442 22.3788C33.694 23.8768 32.896 25.2068 31.146 25.6968Z" fill="white"/>
</svg>
