<svg width="40" height="40" viewBox="0 0 40 40" fill="none" xmlns="http://www.w3.org/2000/svg">
<rect width="40" height="40" fill="#F2672E"/>
<path d="M4 16H6.136V19.36H9.184V16H11.32V24.904H9.184V21.28H6.136V24.904H4V16Z" fill="white"/>
<path d="M12.1112 16H18.8913V17.968H16.5392V24.904H14.4032V17.968H12.1112V16Z" fill="white"/>
<path d="M23.2917 24.904L21.6837 19.132H21.6237L21.5757 24.904H19.3797L19.9317 16H22.3917L24.2757 22.18H24.3357L26.2317 16H28.6917L29.2437 24.904H27.0477L26.9997 19.132H26.9397L25.3317 24.904H23.2917Z" fill="white"/>
<path d="M33.9363 24.904H30.1562V16H32.2922V22.972H34.2122C35.1002 22.972 35.5563 22.912 36.1203 22.84V24.736C35.5923 24.868 34.6203 24.904 33.9363 24.904Z" fill="white"/>
</svg>
